PathFileType	4	(X/Y/Z)	C:/Users/beibeiliu/ov580/test_trc/User2\sequence.24_training_dense_right.trc
DataRate	CameraRate	NumFrames	NumMarkers	Units	OrigDataRate	OrigDataStartFrame	OrigNumFrames
120	120	20	19	mm	120	226	451
Frame#	Time	ThumbCMC			ThumbMCP			ThumbIP			ThumbTip			IndexMCP			IndexPIP			IndexTip			MiddleMCP			MiddlePIP			MiddleTip			RingMCP			RingPIP			RingTip			PinkyMCP			PinkyPIP			PinkyTip			BackHand1			BackHand2			BackHand3	
		X0	Y0	Z0	X1	Y1	Z1	X2	Y2	Z2	X3	Y3	Z3	X4	Y4	Z4	X5	Y5	Z5	X6	Y6	Z6	X7	Y7	Z7	X8	Y8	Z8	X9	Y9	Z9	X10	Y10	Z10	X11	Y11	Z11	X12	Y12	Z12	X13	Y13	Z13	X14	Y14	Z14	X15	Y15	Z15	X16	Y16	Z16	X17	Y17	Z17	X18	Y18	Z18	
225	1.875	45.9334	-41.4802	88.2459	28.3241	-71.342	72.1906	28.6677	-97.9671	46.0552	40.6257	-117.012	28.9711	49.7374	-42.6883	5.0855	36.8873	-50.393	-19.6253	36.818	-61.9991	-43.2694	64.6105	-51.5791	-5.18388	53.0227	-61.1312	-31.665	48.1831	-69.5429	-56.8789	78.5919	-87.4635	6.25122	60.6779	-109.205	15.9651	60.4588	-110.311	52.4649	90.1931	-97.9675	25.2655	74.7057	-119.732	45.0298	66.0348	-104.512	75.5738	103.899	-44.048	47.8443	117.887	-33.885	79.3255	81.2135	-18.8489	69.4865	
226	1.88333	48.838	-40.3182	91.2239	26.373	-72.4195	70.484	24.3742	-99.1393	50.8106	35.8506	-120.042	30.611	45.5634	-42.2974	8.11988	39.0132	-54.5291	-18.1535	34.8167	-64.7094	-40.6458	64.3885	-56.171	-6.81384	50.2447	-64.265	-31.4362	45.6021	-74.8808	-57.4115	72.5551	-90.439	8.8903	58.1314	-112.481	19.7804	54.6378	-107.53	55.1103	90.0616	-99.2506	29.0109	67.8348	-117.372	47.2777	61.426	-106.636	76.1323	107.378	-46.5876	45.5618	114.94	-33.1778	80.5727	79.9543	-21.3871	67.4989	
227	1.89167	48.961	-38.6686	90.5075	23.6541	-70.5961	75.0215	24.0633	-99.2974	52.6433	32.2135	-118.43	39.3755	46.6275	-47.1844	3.83347	35.2799	-57.6334	-20.4269	29.9375	-68.7896	-41.3429	62.8353	-58.687	-5.87	48.4348	-67.8491	-29.5725	41.9038	-79.0464	-54.8869	68.5212	-93.205	11.5231	50.5911	-113.899	24.4764	52.5922	-107.21	62.635	83.3706	-103.858	31.4119	61.5592	-118.514	53.6147	60.5966	-105.115	81.3168	105.107	-49.8765	46.9355	115.983	-34.8979	79.788	84.5586	-22.4471	67.6133	
228	1.9	43.4041	-37.1374	86.7253	21.2043	-67.5169	76.9124	20.6728	-98.0051	55.1744	27.8294	-120.684	40.5954	45.8134	-48.6623	6.61102	34.9299	-57.8557	-15.6994	23.6166	-70.1081	-42.3793	62.3115	-61.617	-1.92536	46.7895	-72.2438	-27.056	34.8356	-81.5856	-53.5832	66.0779	-92.2302	15.0181	47.0868	-117.397	29.5488	46.557	-105.695	65.1489	82.5879	-108.306	34.6048	58.7481	-120.752	52.6074	52.6852	-102.811	81.5958	104.092	-51.3097	48.8216	115.057	-37.4903	77.4605	80.3571	-21.8999	62.509	
229	1.90833	45.7041	-35.2076	88.6745	22.3443	-65.3056	80.2132	13.9059	-96.6633	60.1301	20.4476	-120.051	47.962	44.3249	-49.5264	5.67625	32.9094	-60.3427	-15.4242	23.3958	-75.8328	-41.6719	56.6436	-61.4409	-0.392344	42.6518	-76.8074	-29.2927	29.3306	-87.9685	-52.5412	58.9475	-97.4437	14.4339	39.9217	-117.148	31.7427	41.1678	-108.488	63.8117	73.5796	-112.917	35.9073	49.6563	-117.494	57.6055	50.8936	-101.038	84.3683	102.762	-59.338	45.5167	116.391	-40.8102	77.947	82.976	-23.4586	62.1107	
230	1.91667	51.2664	-36.3924	84.3854	23.8996	-65.0145	77.7943	12.1747	-94.6363	64.2362	20.2153	-119.645	49.6431	44.0395	-50.9662	5.18095	32.7098	-64.1518	-13.7332	19.8504	-75.8244	-36.219	58.9095	-68.3474	-1.04998	39.4889	-79.4666	-27.1647	26.6842	-91.1022	-47.0038	56.7416	-98.2279	18.1642	34.8824	-117.554	35.7864	37.4614	-102.242	68.4318	67.3776	-114.438	38.8843	45.201	-119.884	62.4677	47.3371	-102.279	83.8479	105.007	-64.4107	49.1824	120.691	-48.9566	76.8503	85.7886	-27.5262	61.9553	
231	1.925	51.4652	-32.4354	83.8179	21.1358	-61.0559	77.3998	5.99187	-90.3111	66.4148	14.4316	-117.144	54.4946	44.1607	-53.1928	3.77814	28.3742	-66.6572	-18.7646	18.9312	-82.1151	-37.947	57.7756	-75.4611	-1.25382	37.9648	-86.2057	-26.386	26.0274	-98.9877	-45.8037	52.7374	-102.842	21.7636	29.9491	-116.762	37.1047	34.2301	-104.61	70.5852	66.2311	-119.658	42.901	40.3476	-119.435	67.7521	42.6725	-96.9573	87.1651	103.302	-69.8493	48.1898	120.518	-55.7248	72.3198	91.3301	-34.8891	56.7885	
232	1.93333	59.2536	-32.6573	81.4828	26.0224	-57.0999	77.9347	6.05873	-88.0527	64.5485	6.7546	-115.674	56.7204	46.3016	-60.65	0.0551011	30.2523	-72.2586	-18.2094	18.7068	-84.6119	-36.6281	55.3768	-81.4732	-3.87811	38.6086	-90.5665	-23.6188	21.0875	-105.541	-49.1613	48.9564	-110.875	24.3614	23.2481	-114.394	44.643	29.981	-97.5638	74.2733	58.1485	-119.821	45.0394	33.8923	-115.484	69.6289	41.1791	-95.9156	87.1473	102.359	-80.081	46.1826	123.672	-63.085	75.4072	93.9117	-35.6261	55.329	
233	1.94167	63.2643	-32.2952	76.6749	26.133	-52.6222	73.7748	5.30404	-83.3533	63.092	-0.504122	-108.79	58.9913	49.066	-62.6175	1.14397	31.0089	-75.286	-20.8612	18.5183	-86.9961	-35.2443	56.1422	-81.1935	-3.3033	36.3898	-93.0125	-23.6746	17.9113	-105.949	-47.6679	46.759	-110.774	25.6591	21.7161	-116.702	43.9752	27.5566	-96.9071	76.3901	57.0403	-121.334	48.8422	30.7309	-113.825	73.0635	40.8563	-94.3941	91.1789	104.861	-84.1618	49.155	122.524	-68.7617	69.7277	99.828	-45.1366	52.1908	
234	1.95	67.3687	-32.7474	74.2258	30.3588	-52.7985	70.472	4.92959	-79.642	63.3071	0.427995	-105.016	59.2293	50.3176	-70.7344	-2.9878	33.1341	-80.2656	-20.0863	16.0129	-88.6757	-39.0607	57.6834	-88.4739	-1.65177	36.7674	-96.8113	-22.0751	15.3124	-110.559	-44.9823	44.9258	-111.275	25.8316	17.7908	-115.183	43.0489	24.0452	-90.9739	75.2143	51.5821	-124.346	51.94	28.0946	-111.394	69.5288	38.2522	-89.4114	88.1762	103.225	-89.7602	47.1856	123.034	-74.5204	69.9645	101.555	-50.811	49.3343	
235	1.95833	69.0473	-33.9717	68.2029	32.2316	-47.7979	70.1891	3.92949	-74.3522	62.9682	-6.43155	-98.4871	60.9522	50.9997	-68.9072	-2.82914	32.5192	-79.0408	-22.3164	18.8384	-94.0317	-34.5954	56.4066	-90.6675	-2.38401	33.2381	-101.6	-23.7515	14.7829	-112.635	-40.4244	45.0457	-112.057	28.4935	15.914	-113.687	43.5434	20.5762	-91.4245	72.6996	49.5979	-119.674	51.2576	24.6111	-108.226	75.5725	37.1641	-87.8178	90.2163	102.029	-89.7674	47.7664	122.985	-78.1224	69.987	104.321	-53.7419	45.7414	
236	1.96667	73.461	-32.1396	65.3691	35.5162	-42.1015	68.6949	7.82443	-69.5094	62.3832	-3.80163	-94.8956	60.6293	53.8029	-73.462	-2.4233	33.6879	-79.5688	-21.4224	15.5679	-92.2672	-39.6862	55.5299	-93.5522	-1.10255	33.3244	-101.085	-20.5861	9.29624	-116.665	-40.912	39.0924	-112.716	29.4935	12.4322	-109.58	44.3023	18.548	-85.7838	70.4365	41.9627	-117.754	52.5	22.422	-101.799	71.7782	37.9664	-78.0935	88.9862	99.2963	-98.3106	51.1071	123.253	-80.8315	73.6003	105.051	-58.3894	45.0603	
237	1.975	76.9241	-30.5893	61.2821	35.6149	-37.6502	63.6727	8.205	-61.9571	60.616	-4.0109	-86.6534	61.8283	55.4804	-74.3384	-2.9234	35.5235	-83.5016	-18.931	15.031	-96.8397	-39.282	52.5847	-96.0232	-2.93692	28.9934	-104.352	-21.3769	6.13449	-115.016	-40.1618	34.4609	-110.184	29.1244	10.3432	-101.587	42.895	18.803	-80.8324	71.0358	39.6159	-115.67	54.9599	18.2364	-97.5491	75.5409	36.7448	-75.1615	87.5566	98.0404	-97.1802	48.0397	122.213	-83.6227	69.7447	109.379	-60.2853	43.549	
238	1.98333	83.29	-29.5193	60.7486	41.3366	-35.7107	60.9853	7.60651	-53.8791	58.7436	-6.27754	-77.3797	61.428	54.513	-76.5098	-3.79014	35.2235	-79.4939	-21.995	14.5501	-92.6393	-37.6886	51.8161	-96.1945	-1.22251	24.686	-106.126	-20.9011	5.14618	-112.625	-37.0156	33.8997	-107.367	29.65	7.85368	-98.1253	44.7122	23.5736	-72.9518	71.869	35.7941	-113.977	57.9595	17.1526	-92.3101	71.3952	33.9502	-67.8897	86.3816	97.5888	-97.9452	49.9524	120.943	-88.0576	73.7257	109.034	-63.0189	40.7297	
239	1.99167	84.0564	-29.6858	54.6395	46.9417	-31.5808	57.3351	12.355	-47.2943	56.9866	-5.47371	-72.8371	58.4645	56.313	-73.2436	-6.23622	35.6667	-81.2933	-21.7915	14.3168	-91.6354	-38.5829	50.3097	-96.5113	-0.202514	26.3236	-104.834	-17.5561	1.77062	-108.398	-38.3796	28.9491	-105.704	31.4663	6.46121	-89.9585	46.9378	24.5939	-67.2212	70.9183	35.666	-110.688	59.5582	16.585	-86.4342	70.5198	35.4828	-63.1661	88.4215	91.3554	-99.2433	49.871	118.493	-88.8676	69.9176	110.9	-66.1304	42.7116	
240	2	91.7991	-33.7728	53.6237	49.3086	-26.8537	51.2525	18.1174	-41.5082	52.7762	-3.91274	-59.06	56.4775	55.2409	-79.0275	-6.94111	33.6886	-85.273	-23.9965	15.1461	-90.0261	-37.8383	48.0117	-98.082	-0.563848	25.5911	-101.128	-17.9346	-0.618537	-105.996	-40.0534	29.6702	-100.801	32.1832	7.30661	-81.4928	44.9998	23.6614	-60.2977	64.611	29.0658	-105.812	59.5262	15.504	-79.1517	69.3468	35.6518	-58.6612	82.9669	92.8083	-103.077	54.6768	121.453	-94.8872	74.6972	112.14	-72.1832	39.8579	
241	2.00833	97.1583	-34.5556	49.0952	54.9695	-25.5574	46.925	22.3294	-38.8158	47.4074	1.05274	-56.6198	51.9376	58.4349	-77.4934	-7.4741	38.6218	-82.6917	-23.4168	17.2941	-87.8127	-40.1396	49.3291	-95.8268	-0.962047	26.0347	-98.2926	-20.0833	1.28234	-106.942	-35.0871	29.2998	-97.4031	31.0143	8.02374	-75.6876	44.0264	26.5942	-56.9894	65.4147	31.3777	-100.895	58.4572	16.7022	-72.6283	68.5959	40.3175	-51.2586	83.0197	92.8807	-103.758	52.8549	119.394	-94.4327	72.5691	112.746	-75.5055	38.2822	
242	2.01667	101.97	-36.4258	44.9671	64.4374	-26.3363	43.1975	26.8937	-31.8215	42.2879	7.38202	-45.6619	47.9507	64.4703	-76.1809	-10.1448	41.4683	-81.8377	-26.3518	19.4664	-89.7859	-40.8957	50.3674	-96.1557	-0.929395	25.6354	-96.5995	-23.6774	3.45794	-104.367	-37.2587	31.6571	-94.8444	31.0555	10.4391	-70.4222	39.5756	33.1029	-51.0288	64.1218	32.2924	-97.5979	57.8296	18.6715	-64.7892	67.7758	43.7806	-44.6919	77.9164	89.5736	-102.544	50.5068	119.606	-98.5713	73.1136	117.886	-76.7432	39.6991	
243	2.025	110.87	-35.962	43.525	71.5273	-22.9267	37.8635	34.3821	-30.1435	36.2454	9.74953	-38.6103	39.4723	62.9992	-81.2032	-14.5464	44.8765	-82.4483	-30.3053	24.0489	-89.1361	-45.4115	53.1417	-96.4874	-1.48996	29.5697	-98.7724	-22.0092	6.19583	-103.253	-41.9823	31.7976	-90.1639	26.715	14.0572	-66.3371	34.1182	33.6238	-45.9825	55.3162	33.8276	-90.8928	52.9412	22.5151	-59.5969	60.8496	44.5235	-44.6441	71.6009	87.7155	-106.786	51.8192	117.507	-99.9166	72.0471	119.288	-80.4133	36.3807	
244	2.03333	115.927	-38.655	41.6203	77.0688	-25.3174	33.6671	38.1895	-28.5141	30.5194	14.5604	-34.4622	33.5249	66.6167	-82.8824	-14.1267	47.074	-85.3295	-33.0304	25.1772	-90.6162	-50.3356	56.9108	-95.7449	-5.78154	30.7825	-98.675	-24.744	8.01207	-102.29	-46.7448	32.2152	-90.3453	24.5153	14.1258	-65.7549	32.1519	39.377	-41.9788	52.5272	32.9556	-89.2211	51.6238	24.6343	-56.4136	56	51.1462	-39.7281	70.2631	92.53	-105.94	50.2043	117.829	-101.255	72.6291	118.598	-83.7667	33.1213	
